<svg width="54" height="54" viewBox="0 0 54 54" fill="none" xmlns="http://www.w3.org/2000/svg">
<circle cx="27" cy="29.25" r="6.75" fill="#212121"/>
<path d="M27 39.0375C29.7 39.0375 31.9688 38.1187 33.8062 36.2812C35.6437 34.4438 36.5625 32.175 36.5625 29.475C36.5625 26.7375 35.6437 24.4594 33.8062 22.6406C31.9688 20.8219 29.7 19.9125 27 19.9125C24.2625 19.9125 21.9844 20.8219 20.1656 22.6406C18.3469 24.4594 17.4375 26.7375 17.4375 29.475C17.4375 32.175 18.3469 34.4438 20.1656 36.2812C21.9844 38.1187 24.2625 39.0375 27 39.0375ZM7.875 47.25C6.975 47.25 6.1875 46.9125 5.5125 46.2375C4.8375 45.5625 4.5 44.775 4.5 43.875V15.0188C4.5 14.1563 4.8375 13.3781 5.5125 12.6844C6.1875 11.9906 6.975 11.6438 7.875 11.6438H16.1438L20.25 6.75H33.75L37.8563 11.6438H46.125C46.9875 11.6438 47.7656 11.9906 48.4594 12.6844C49.1531 13.3781 49.5 14.1563 49.5 15.0188V43.875C49.5 44.775 49.1531 45.5625 48.4594 46.2375C47.7656 46.9125 46.9875 47.25 46.125 47.25H7.875Z" fill="#212121"/>
</svg>
