<svg width="90" height="90" viewBox="0 0 90 90" fill="none" xmlns="http://www.w3.org/2000/svg">
<path fill-rule="evenodd" clip-rule="evenodd" d="M35.8015 1.80154C34.6005 3.00257 34 4.45086 34 6.14643V34H6.14643C4.45086 34 3.00257 34.6005 1.80154 35.8016C0.600513 37.0026 -7.41156e-08 38.4509 0 40.1465L2.14009e-06 82.9595C2.14009e-06 84.6551 0.600515 86.1034 1.80154 87.3044C3.00257 88.5054 4.45087 89.106 6.14643 89.106H82.8709C84.5664 89.106 86.0147 88.5054 87.2157 87.3044C88.4168 86.1034 89.0173 84.6551 89.0173 82.9595V44.5H89.1059V6.14643C89.1059 4.45086 88.5054 3.00257 87.3044 1.80154C86.1034 0.600513 84.6551 0 82.9595 0H40.1464C38.4509 0 37.0026 0.600513 35.8015 1.80154ZM84.3372 34.1638V14.0944H38.7688V34L82.8709 34C83.3821 34 83.8709 34.0546 84.3372 34.1638ZM38.7688 9.32562H84.3372V6.14643C84.3372 5.79319 84.1959 5.47527 83.9133 5.19267C83.6307 4.91008 83.3127 4.76878 82.9595 4.76878H40.1464C39.7932 4.76878 39.4753 4.91008 39.1927 5.19267C38.9101 5.47527 38.7688 5.79319 38.7688 6.14643V9.32562ZM82.8709 84.3372H72.8034V38.7688H82.8709C83.2241 38.7688 83.542 38.9101 83.8246 39.1927C84.1072 39.4753 84.2485 39.7932 84.2485 40.1465V82.9595C84.2485 83.3128 84.1072 83.6307 83.8246 83.9133C83.542 84.1959 83.2241 84.3372 82.8709 84.3372ZM80.6454 59.4335C81.2106 59.9987 81.4932 60.7052 81.4932 61.553C81.4932 62.3301 81.2106 63.0189 80.6454 63.6195C80.0802 64.22 79.3738 64.5202 78.526 64.5202C77.6782 64.5202 76.9717 64.2376 76.4065 63.6724C75.8413 63.1073 75.5587 62.4008 75.5587 61.553C75.5587 60.7759 75.8413 60.087 76.4065 59.4865C76.9717 58.886 77.6782 58.5857 78.526 58.5857C79.3738 58.5857 80.0802 58.8683 80.6454 59.4335ZM68.0346 38.7688V84.3372H14.0944L14.0944 38.7688L68.0346 38.7688ZM9.32562 38.7688L9.32562 84.3372H6.14643C5.79319 84.3372 5.47527 84.1959 5.19268 83.9133C4.91008 83.6307 4.76878 83.3128 4.76878 82.9595L4.76878 40.1465C4.76878 39.7932 4.91008 39.4753 5.19267 39.1927C5.47527 38.9101 5.79319 38.7688 6.14643 38.7688H9.32562Z" fill="white"/>
<path d="M3.40308 26.7094H6.6687V20.1438C6.6687 19.0438 7.0411 18.1214 7.78589 17.3766C8.53068 16.6318 9.44162 16.2594 10.5187 16.2594H23.4093L18.7 20.9688L20.9687 23.2375L29.5968 14.6438L20.9687 6.05005L18.7 8.3188L23.4093 13.0282H10.5187C8.54787 13.0282 6.86922 13.7157 5.48276 15.0907C4.09631 16.4657 3.40308 18.15 3.40308 20.1438V26.7094Z" fill="#00F5CA"/>
</svg>
