<svg width="53" height="53" viewBox="0 0 53 53" fill="none" xmlns="http://www.w3.org/2000/svg">
<path d="M7.72913 44.1667C6.84579 44.1667 6.07288 43.8355 5.41038 43.173C4.74788 42.5105 4.41663 41.7375 4.41663 40.8542V12.1459C4.41663 11.2625 4.74788 10.4896 5.41038 9.82712C6.07288 9.16462 6.84579 8.83337 7.72913 8.83337H36.4375C37.3208 8.83337 38.0937 9.16462 38.7562 9.82712C39.4187 10.4896 39.75 11.2625 39.75 12.1459V24.0157L48.5833 15.1823V37.8177L39.75 28.9844V40.8542C39.75 41.7375 39.4187 42.5105 38.7562 43.173C38.0937 43.8355 37.3208 44.1667 36.4375 44.1667H7.72913Z" fill="#212121"/>
</svg>
